<?xml version="1.0" encoding="UTF-8" standalone="no"?><!DOCTYPE svg PUBLIC "-//W3C//DTD SVG 1.1//EN" "http://www.w3.org/Graphics/SVG/1.1/DTD/svg11.dtd"><!-- Generated by graphviz version 2.40.1 (20161225.0304)
 --><!-- Title: G Pages: 1 --><svg xmlns="http://www.w3.org/2000/svg" xmlns:xlink="http://www.w3.org/1999/xlink" width="721pt" height="663pt" viewBox="0.00 0.00 721.00 662.80">
<g id="graph0" class="graph" transform="scale(1 1) rotate(0) translate(4 658.8)">
<title>G</title>
<polygon fill="#ffffff" stroke="transparent" points="-4,4 -4,-658.8 717,-658.8 717,4 -4,4"/>
<g id="clust1" class="cluster">
<title>cluster_ethereum_l1</title>
<polygon fill="#add8e6" stroke="#add8e6" points="8,-8 8,-424.2 296,-424.2 296,-8 8,-8"/>
<text text-anchor="middle" x="152" y="-407.6" font-family="Times,serif" font-size="14.00" fill="#000000">Ethereum Layer 1 (L1)</text>
</g>
<g id="clust2" class="cluster">
<title>cluster_layer2_rollup</title>
<polygon fill="none" stroke="#000000" points="307,-96.8 307,-646.8 705,-646.8 705,-96.8 307,-96.8"/>
<text text-anchor="middle" x="506" y="-630.2" font-family="Times,serif" font-size="14.00" fill="#000000">Layer 2 Rollup</text>
</g>
<!-- L1_Ethereum -->
<g id="node1" class="node">
<title>L1_Ethereum</title>
<ellipse fill="none" stroke="#000000" cx="117" cy="-373.4" rx="88.6082" ry="18"/>
<text text-anchor="middle" x="117" y="-369.2" font-family="Times,serif" font-size="14.00" fill="#000000">Ethereum L1 Nodes</text>
</g>
<!-- L1_Contracts -->
<g id="node2" class="node">
<title>L1_Contracts</title>
<ellipse fill="none" stroke="#000000" cx="200" cy="-34" rx="73.5493" ry="18"/>
<text text-anchor="middle" x="200" y="-29.8" font-family="Times,serif" font-size="14.00" fill="#000000">Smart Contracts</text>
</g>
<!-- L1_Ethereum&#45;&gt;L1_Contracts -->
<g id="edge1" class="edge">
<title>L1_Ethereum-&gt;L1_Contracts</title>
<path fill="none" stroke="#000000" d="M78.4158,-356.9849C56.7409,-344.9104 34,-326.1148 34,-300.4 34,-300.4 34,-300.4 34,-122.8 34,-78.2849 80.987,-56.0011 124.9641,-44.8935"/>
<polygon fill="#000000" stroke="#000000" points="125.9378,-48.2601 134.8688,-42.5603 124.3327,-41.4466 125.9378,-48.2601"/>
<text text-anchor="middle" x="67.0407" y="-207.4" font-family="Times,serif" font-size="14.00" fill="#000000">Interactions</text>
</g>
<!-- L1_Network -->
<g id="node3" class="node">
<title>L1_Network</title>
<ellipse fill="none" stroke="#000000" cx="203" cy="-211.6" rx="84.5525" ry="18"/>
<text text-anchor="middle" x="203" y="-207.4" font-family="Times,serif" font-size="14.00" fill="#000000">Ethereum Network</text>
</g>
<!-- L1_Ethereum&#45;&gt;L1_Network -->
<g id="edge2" class="edge">
<title>L1_Ethereum-&gt;L1_Network</title>
<path fill="none" stroke="#000000" d="M123.0621,-355.0565C131.842,-329.7785 149.5342,-283.3116 172,-247.6 174.1616,-244.1639 176.638,-240.7183 179.2281,-237.3939"/>
<polygon fill="#000000" stroke="#000000" points="182.1162,-239.3933 185.7864,-229.4544 176.7194,-234.9352 182.1162,-239.3933"/>
<text text-anchor="middle" x="220.6182" y="-296.2" font-family="Times,serif" font-size="14.00" fill="#000000">Transaction Propagation</text>
</g>
<!-- L1_Bridge -->
<g id="node8" class="node">
<title>L1_Bridge</title>
<ellipse fill="none" stroke="#000000" cx="390" cy="-122.8" rx="75.2615" ry="18"/>
<text text-anchor="middle" x="390" y="-118.6" font-family="Times,serif" font-size="14.00" fill="#000000">L1-to-L2 Bridge</text>
</g>
<!-- L1_Contracts&#45;&gt;L1_Bridge -->
<g id="edge8" class="edge">
<title>L1_Contracts-&gt;L1_Bridge</title>
<path fill="none" stroke="#000000" d="M234.1516,-49.9614C265.5439,-64.6331 312.2419,-86.4583 346.3342,-102.392"/>
<polygon fill="#000000" stroke="#000000" points="345.0511,-105.6556 355.5924,-106.719 348.015,-99.3141 345.0511,-105.6556"/>
<text text-anchor="middle" x="348.9348" y="-74.2" font-family="Times,serif" font-size="14.00" fill="#000000">Lock/Unlock</text>
</g>
<!-- L1_Network&#45;&gt;L1_Contracts -->
<g id="edge3" class="edge">
<title>L1_Network-&gt;L1_Contracts</title>
<path fill="none" stroke="#000000" d="M202.6958,-193.5934C202.1725,-162.612 201.0981,-99.006 200.4752,-62.1346"/>
<polygon fill="#000000" stroke="#000000" points="203.9735,-61.9937 200.305,-52.0543 196.9745,-62.112 203.9735,-61.9937"/>
<text text-anchor="middle" x="240.8503" y="-118.6" font-family="Times,serif" font-size="14.00" fill="#000000">External Calls</text>
</g>
<!-- L1_Network&#45;&gt;L1_Bridge -->
<g id="edge10" class="edge">
<title>L1_Network-&gt;L1_Bridge</title>
<path fill="none" stroke="#000000" d="M206.1258,-193.376C209.0551,-181.8142 214.6093,-167.4535 224.9754,-158.8 226.9832,-157.1239 278.0339,-146.1295 322.8257,-136.7266"/>
<polygon fill="#000000" stroke="#000000" points="323.7872,-140.1012 332.8572,-134.6252 322.352,-133.2499 323.7872,-140.1012"/>
<text text-anchor="middle" x="275.5123" y="-163" font-family="Times,serif" font-size="14.00" fill="#000000">Bridge Operations</text>
</g>
<!-- L2_Contracts -->
<g id="node4" class="node">
<title>L2_Contracts</title>
<ellipse fill="none" stroke="#000000" cx="436" cy="-469.2" rx="86.8339" ry="18"/>
<text text-anchor="middle" x="436" y="-465" font-family="Times,serif" font-size="14.00" fill="#000000">L2 Smart Contracts</text>
</g>
<!-- L2_State -->
<g id="node5" class="node">
<title>L2_State</title>
<ellipse fill="none" stroke="#000000" cx="358" cy="-300.4" rx="43.4754" ry="18"/>
<text text-anchor="middle" x="358" y="-296.2" font-family="Times,serif" font-size="14.00" fill="#000000">L2 State</text>
</g>
<!-- L2_Contracts&#45;&gt;L2_State -->
<g id="edge4" class="edge">
<title>L2_Contracts-&gt;L2_State</title>
<path fill="none" stroke="#000000" d="M400.5875,-452.64C389.1674,-445.513 377.6577,-436.0535 370.636,-424.2 353.4097,-395.1197 352.5188,-355.3477 354.4311,-328.8121"/>
<polygon fill="#000000" stroke="#000000" points="357.9342,-328.9342 355.3458,-318.6604 350.9624,-328.306 357.9342,-328.9342"/>
<text text-anchor="middle" x="408.682" y="-369.2" font-family="Times,serif" font-size="14.00" fill="#000000">State Updates</text>
</g>
<!-- L2_Bridge -->
<g id="node6" class="node">
<title>L2_Bridge</title>
<ellipse fill="none" stroke="#000000" cx="495" cy="-300.4" rx="75.2615" ry="18"/>
<text text-anchor="middle" x="495" y="-296.2" font-family="Times,serif" font-size="14.00" fill="#000000">L2-to-L1 Bridge</text>
</g>
<!-- L2_Contracts&#45;&gt;L2_Bridge -->
<g id="edge5" class="edge">
<title>L2_Contracts-&gt;L2_Bridge</title>
<path fill="none" stroke="#000000" d="M442.314,-451.1354C452.6226,-421.6426 473.1353,-362.9554 485.3012,-328.1483"/>
<polygon fill="#000000" stroke="#000000" points="488.6466,-329.1846 488.6422,-318.5898 482.0386,-326.8749 488.6466,-329.1846"/>
<text text-anchor="middle" x="526.7076" y="-369.2" font-family="Times,serif" font-size="14.00" fill="#000000">Deposit/Withdraw</text>
</g>
<!-- L2_Bridge&#45;&gt;L1_Network -->
<g id="edge11" class="edge">
<title>L2_Bridge-&gt;L1_Network</title>
<path fill="none" stroke="#000000" d="M440.7748,-287.8179C430.5914,-285.768 420.0024,-283.846 410,-282.4 384.7441,-278.7489 198.3633,-283.138 181.0406,-264.4 174.197,-256.9973 176.2379,-247.1596 181.1917,-237.9834"/>
<polygon fill="#000000" stroke="#000000" points="184.1867,-239.7966 186.6388,-229.4895 178.2943,-236.0178 184.1867,-239.7966"/>
<text text-anchor="middle" x="254.4797" y="-251.8" font-family="Times,serif" font-size="14.00" fill="#000000">Confirmation/Verification</text>
</g>
<!-- L2_Bridge&#45;&gt;L1_Bridge -->
<g id="edge7" class="edge">
<title>L2_Bridge-&gt;L1_Bridge</title>
<path fill="none" stroke="#000000" d="M437.5656,-288.6793C405.0625,-278.7893 367.0652,-261.0045 347.2924,-229.6 330.9937,-203.7133 349.4932,-170.5655 366.9812,-148.1157"/>
<polygon fill="#000000" stroke="#000000" points="369.6986,-150.3216 373.3121,-140.362 364.2764,-145.8943 369.6986,-150.3216"/>
<text text-anchor="middle" x="428.8538" y="-207.4" font-family="Times,serif" font-size="14.00" fill="#000000">Cross-Chain Communication</text>
</g>
<!-- L2_Operators -->
<g id="node7" class="node">
<title>L2_Operators</title>
<ellipse fill="none" stroke="#000000" cx="436" cy="-596" rx="49.2144" ry="18"/>
<text text-anchor="middle" x="436" y="-591.8" font-family="Times,serif" font-size="14.00" fill="#000000">Operators</text>
</g>
<!-- L2_Operators&#45;&gt;L2_Contracts -->
<g id="edge6" class="edge">
<title>L2_Operators-&gt;L2_Contracts</title>
<path fill="none" stroke="#000000" d="M436,-577.8327C436,-556.8352 436,-522.0261 436,-497.479"/>
<polygon fill="#000000" stroke="#000000" points="439.5001,-497.3336 436,-487.3336 432.5001,-497.3337 439.5001,-497.3336"/>
<text text-anchor="middle" x="503.4632" y="-528.4" font-family="Times,serif" font-size="14.00" fill="#000000">Transaction Submission</text>
</g>
<!-- L1_Bridge&#45;&gt;L2_Bridge -->
<g id="edge9" class="edge">
<title>L1_Bridge-&gt;L2_Bridge</title>
<path fill="none" stroke="#000000" d="M436.7217,-137.0486C463.5863,-147.914 495.0778,-165.836 511,-193.6 524.9746,-217.9679 517.1109,-250.3953 508.1845,-273.1014"/>
<polygon fill="#000000" stroke="#000000" points="504.8876,-271.9116 504.2192,-282.4854 511.3356,-274.6363 504.8876,-271.9116"/>
<text text-anchor="middle" x="599.8538" y="-207.4" font-family="Times,serif" font-size="14.00" fill="#000000">Cross-Chain Communication</text>
</g>
</g>
</svg>