<?xml version="1.0" encoding="utf-8"?>
<!-- Generator: Adobe Illustrator 27.5.0, SVG Export Plug-In . SVG Version: 6.00 Build 0)  -->
<svg version="1.1" id="Layer_1" xmlns="http://www.w3.org/2000/svg" xmlns:xlink="http://www.w3.org/1999/xlink" x="0px" y="0px"
	 viewBox="0 0 1024 1024" enable-background="new 0 0 1024 1024" xml:space="preserve">
<rect fill="none" width="1024" height="1024"/>
<path fill="#892164" d="M417.09,741.47c7.773,3.62,18.343,7.017,31.71,10.19c14.346,3.301,29.03,4.909,43.75,4.79
	c32.893,0,62.117-8.4,87.67-25.2c25.553-16.8,38.327-40.1,38.32-69.9c0-19.1-5.487-35.1-16.46-48
	c-11.304-13.147-25.161-23.86-40.73-31.49c-16.18-8.1-38.447-17.797-66.8-29.09c-37.193-14.18-67.223-27.49-90.09-39.93
	c-22.867-12.44-42.397-30.387-58.59-53.84c-16.187-23.44-24.277-53.543-24.27-90.31c0-58.747,18.527-102.883,55.58-132.41
	s83.53-44.287,139.43-44.28c24.543,0.16,49.005,2.841,73,8c25.693,5.333,47.627,10.837,65.8,16.51
	c18.173,5.673,29.703,9.373,34.59,11.1l-4,151.1h-53.42l-28.1-95.09c-2.12-0.57-7.35-2.24-15.64-5s-19-5.28-32.09-7.6
	c-12.99-2.308-26.157-3.473-39.35-3.48c-35.04,0-62.04,8.47-81,25.41s-28.46,37.273-28.5,61c0,19.113,5.487,35.113,16.46,48
	s24.683,23.523,41.13,31.91c16.453,8.393,39.533,18.233,69.24,29.52c35.513,13.607,64.653,26.48,87.42,38.62
	c22.767,12.14,42.1,29.29,58,51.45c15.907,22.127,23.863,50.127,23.87,84c0,42.56-9.63,78.527-28.89,107.9
	c-18.813,29.01-45.843,51.758-77.64,65.34C564.97,824.897,528.917,832,489.33,832c-25.485,0.013-50.904-2.607-75.85-7.82
	c-24.873-5.207-45.54-10.633-62-16.28c-16.46-5.647-26.953-9.337-31.48-11.07V641h65.8l16.45,93.34
	C404.403,735.447,409.35,737.823,417.09,741.47z"/>
<path fill="#231F20" stroke="#231F20" stroke-width="2" stroke-miterlimit="10" d="M848.73,157.45
	c21.78,19.613,32.67,53.3,32.67,101.06v131.24c0,25.507,5.773,45.197,17.32,59.07c11.547,13.873,31.973,20.81,61.28,20.81v54
	c-29.287,0-49.713,6.88-61.28,20.64s-17.34,33.5-17.32,59.22v162c0,47.5-10.89,81.127-32.67,100.88
	C826.95,886.123,791.067,896,741.08,896H704v-49.88c26.34,0,46.833-2.44,61.48-7.32s24.98-13.063,31-24.55
	c6.073-11.5,9.1-27.753,9.08-48.76v-162c0-26,6.45-48.12,19.35-66.36c12.9-18.24,31.983-31.743,57.25-40.51
	c-25.247-8.74-44.33-22.173-57.25-40.3c-12.92-18.127-19.37-40.317-19.35-66.57V258.51c0-21.007-3.027-37.257-9.08-48.75
	s-16.387-19.68-31-24.56c-14.667-4.887-35.16-7.327-61.48-7.32V128h37.08C791.08,128,826.963,137.817,848.73,157.45z"/>
<path fill="#231F20" stroke="#231F20" stroke-width="2" stroke-miterlimit="10" d="M258.51,185.2c-14.667,4.86-25,13.047-31,24.56
	s-9.027,27.763-9.08,48.75v131.24c0,26-6.45,48.123-19.35,66.37c-12.9,18.247-31.983,31.747-57.25,40.5
	c25.267,8.753,44.35,22.193,57.25,40.32c12.9,18.127,19.35,40.31,19.35,66.55v162c0,21,3.027,37.253,9.08,48.76
	s16.387,19.69,31,24.55c14.667,4.893,35.163,7.333,61.49,7.32V896h-37.11c-50,0-85.877-9.877-107.63-29.63
	c-21.753-19.753-32.64-53.38-32.66-100.88v-162c0-25.493-5.773-45.16-17.32-59S93.307,523.693,64,523.62v-54
	c29.293,0,49.72-6.877,61.28-20.63s17.333-33.503,17.32-59.25V258.51c0-47.507,10.887-81.133,32.66-100.88
	s57.65-29.623,107.63-29.63H320v49.88C293.647,177.88,273.15,180.32,258.51,185.2z"/>
</svg>
