<svg id="Layer_1" data-name="Layer 1" xmlns="http://www.w3.org/2000/svg" viewBox="0 0 1984.25 392.41"><defs><style>.cls-1{fill:#b45470;}.cls-2{fill:#83455c;}.cls-3{fill:#5a384b;}.cls-4{fill:#2f2a3a;}</style></defs><path class="cls-2" d="M1984.25,392.41V211.88c-8.27-8.87-18.31-17.73-32.48-22.46-11.81-3-20.67-5.91-29.53-17.73s-14.76-20.69-29.52-29.56c-11.82-5.91-26.58-11.82-41.93-20.69l-35.44-17.73c-11.81-5.92-14.76-14.78-14.76-26.61-2.95-17.73-8.86-35.46-23.62-47.29C1765.16,21,1753.35-2.7,1735,.26c-23.62,3-33.07,24.83-71.46,58.52-18.9,17.14-29.53,38.42-50.79,56.16-35.43,26.6-74.41,50.24-112.79,70.34-17.72,8.87-32.48,17.73-50.79,26.6-5.9,3-11.81,5.91-17.72,5.91-8.85-2.95-14.76-8.86-20.66-11.82-23.63-11.82-50.79-5.91-74.41-14.78-17.72-5.91-32.48-20.69-44.89-35.47-8.85-8.86-23.62-32.51-38.38-29.55-8.86,3-14.77,11.82-17.72,17.73-5.9,11.82-11.81,20.69-17.71,29.56C1208.82,188.24,1197,206,1179.29,206c-11.81,3-23.62-5.91-38.39-11.82-8.85,0-17.71,0-26.57-5.91-14.77-5.91-26.58-23.65-38.39-35.47-11.81-14.78-26.57-29.56-44.88-38.42-14.76-8.87-26.57-17.74-38.38-32.52s-26-26.6-34.85-44.33-13-29.56-30.71-17.73C900.55,37.5,895.23,68.24,871.61,86c-26.57,23.65-72,36.65-102.16,60.3-8.86,5.91-26.58,23.64-41.93,20.69-8.86,0-14.77-11.83-23.62-14.78-11.82-5.91-26.58-5.91-38.39-11.82C639,131.49,633.07,99,600,104.89c-11.81,0-20.67,5.91-32.48,3-8.86-3-17.72-8.86-26.58-11.82-17.71-5.91-32.48-11.82-47.83-26.6-17.72-17.73-35.43-29.56-62.6-29.56-44.88,0-92.13,26.6-131.1,47.29-29.53,17.74-59.65,35.47-92.13,50.25L180.71,328.33l842.66,64.08Z"/><path class="cls-3" d="M1605.68,392.41,1964.17,378l20.08-72.71V265.67c-37.79-14.77-111-53.79-138.78-65.61-39.57-16-88.58-36.06-134-36.65-27.76-.59-46.07,8.28-64.37,20.69-15.36,10.64-30.71,14.78-49,18.91-9.45,1.78-18.31,6.51-27.76,8.28-12.4,1.77-21.26-2.36-33.66-2.36-33.66-4.73-40.15,18.91-67.91,24.82-12.4,4.14-13.58,16.56-26,20.69-9.45,1.78-29.53-1.77-39-2.36-15.36,1.77-25.39,28.37-34.84,24.23-30.12-17.73-20.08-7.68-47.84-25.41-24.21-13.6-4.72-1.78-31.89-15.37-18.31-8.87-68.5-18.33-78-5.91-9.45,13-46.65-3-59.06,7.68s-38.38-10.05-59.64-13.6c-19.49-3.54-34.84,1.78-47.25,12.42-12.4,8.27-24.8,21.28-40.15,25.42-9.45,4.13-18.31,4.13-27.76,4.13-15.35,4.14-27.75,10.64-40.16,8.28-18.3,0-30.71-13.6-39.56-24.24a253.25,253.25,0,0,1-18.31-21.87c-3-4.14-8.86-11.23-18.31-13-15.35-2.37-30.71,14.78-40.16,21.28-12.4,10.64-27.75,21.28-46.06,25.42-24.8,5.91-52,1.18-76.77,10-5.91,2.36-12.4,6.5-21.26,8.27-5.91,0-12.4-2.36-18.31-4.73-18.3-6.5-33.66-13.59-52-20.1-39.56-16-79.13-33.69-115.74-53.79l-10.63-7.09C438.73,244.34,306.44,255,297,176.36c-1.78,5.32-5.91,9.46-14.77,12.42L245,201.19c-15.36,6.5-30.71,10.64-43.11,14.78-15.36,6.5-21.85,13-30.71,21.28-9.45,8.28-18.31,10.64-30.71,12.41a83.71,83.71,0,0,0-40.16,21.28L98.82,392.41Z"/><path class="cls-4" d="M1984.25,392.41v-106c-8.86-3-20.67-5.91-29.53-11.82-17.71-11.82-32.48-23.64-50.78-32.51-14.77-5.91-32.48-14.78-47.84-14.78-2.95,0-8.86,3-11.81,5.91-14.76,3-26.57,8.87-38.39,14.78-26.57,11.82-53.74,20.69-80.31,32.51-11.81,5.91-29.53,11.83-44.88,14.78-20.67,3-23.62-14.78-39-26.6-11.81-11.82-32.48-17.73-50.79-11.82-14.76,5.91-26.57,14.78-41.93,20.69-23.62,8.86-47.83,17.73-71.45,32.51-38.39,20.69-74.41,44.33-112.8,64.43-8.86,3-20.67,8.87-32.48,11.82-5.9,0-11.81-2.95-14.76-2.95-11.81,0-23.62,5.91-32.48,5.91-23.62,0-38.39-29.56-53.74-44.33-14.77-17.74-32.48-32.52-56.7-29.56-17.71,3-35.43,11.82-53.74,14.78L1058.25,339c-20.67,5.92-41.93,8.87-62.6,11.83-8.86,2.95-23.62,5.91-35.44,2.95-8.85-5.91-14.76-17.73-20.66-23.64-8.86-5.91-20.67-8.87-32.48-14.78-8.86-5.91-11.82-20.69-20.67-26.6-14.77-8.87-32.48,3-44.89,8.87-20.67,5.91-38.38,14.77-59.64,11.82-11.81,0-20.67-5.91-32.48-8.87-11.81-5.91-23.62-8.87-35.44-17.73-23.62-17.74-44.88-38.43-65.55-56.16C630.69,209,610,182.38,585.81,173.51c-14.77-5.91-26.58,3-38.39,3-14.76,3-29.53-3-44.88,0-17.72,0-32.48,5.92-47.84,8.87-23.62,0-56.69,3-77.36-11.82-8.86-5.91-17.72-14.78-23.62-20.69-3-5.91-3-11.82-8.86-17.73-8.86-11.83-29.53-3-41.93,0-23.62,5.91-53.74,11.82-77.36,8.86-17.72-3-29.53-14.78-41.93-26.6-8.84-6-23.64-17.79-35.41-14.79s-23.63,11.83-35.44,17.74C76.18,136.22,41.93,158.09,0,159.86V392.41Z"/></svg>