<svg width="1985" height="393" viewBox="0 0 1985 393" fill="none" xmlns="http://www.w3.org/2000/svg">
<rect width="1985" height="393" fill="#F5F5F5"/>
<g clip-path="url(#clip0_0_1)">
<path d="M1907.66 185.87C1900.55 188.35 1893.82 191.07 1886.4 193.35C1869.63 198.63 1851.94 200.373 1834.46 198.47C1815.94 196.481 1797.3 195.813 1778.69 196.47C1733.69 198.07 1688.75 200.24 1643.57 200.47C1620.2 200.6 1599.57 203.14 1583.02 210.75C1576.16 213.722 1568.91 215.711 1561.49 216.66C1539.64 219.937 1517.99 224.434 1496.64 230.13C1477.71 235.05 1459.44 240.48 1439.09 244.31C1407.54 250.26 1374.31 253.69 1341.15 257.31C1281.82 263.78 1221.53 268.41 1162.42 275.31C1141.07 277.79 1120.48 280.7 1102.64 286.99C1089.19 291.572 1075.21 294.402 1061.04 295.41C1053.57 298.19 1043.94 298.92 1035.24 300.49C1018.85 303.49 1003.62 307.64 986.12 309.41C977.5 311.59 967.97 312.76 958.58 314.04L949.16 315.35C941.71 312.93 935.93 309.52 933.03 305.49C932.22 304.38 930.45 303.23 933.58 302.24C889.31 293.68 845.12 285 799 278.35C790.102 277.123 781.104 276.788 772.14 277.35C758.38 278.09 744.8 278.67 731.7 275.82C727.807 274.957 723.844 274.445 719.86 274.29C699.95 273.64 682.04 270.17 663.86 267C659.112 266.133 654.282 265.797 649.46 266C639.71 266.45 630.1 266 621.97 263.26C615.27 260.99 607.84 260.26 599.52 260.38C587.12 260.53 574.71 260.38 562.3 260.38C558.507 260.239 554.71 260.524 550.98 261.23C530.36 266.14 507.06 267.38 485.23 270.61C482.08 271.109 478.868 271.071 475.73 270.5C459.34 267.68 443.24 264.57 427.73 260.95C422.595 259.585 417.218 259.397 412 260.4C407.369 261.322 402.583 261.113 398.05 259.79C390.05 257.73 381.97 255.53 372.27 255.22C368.917 255.357 365.56 255.092 362.27 254.43C358.52 253.22 354.27 252.2 351.12 250.74C341.62 246.4 330.41 244.54 316.58 244.27C303.64 244.01 290.44 243.9 278.38 240.66C245.58 231.83 213.48 222.48 178.38 215.36C169.516 213.444 160.416 212.858 151.38 213.62C142.38 214.42 134.06 214.23 126.04 211.99C122.305 210.905 118.462 210.234 114.58 209.99C103.8 209.48 94.83 207.24 85.63 204.99C78.76 203.34 72.26 200.99 63.48 201.69C57.6542 202.262 51.7792 201.325 46.42 198.97C42.59 197.19 38.08 196.65 32.58 196.33C21.7252 195.77 10.8471 195.837 0 196.53L0 391.18H794.74C802.53 389.66 810.15 387.96 818.01 386.51C825.62 385.1 833.14 383.58 841.21 382.8C871.82 379.8 900.21 373.5 931.49 371.51C961.27 369.62 991.35 368.16 1020.91 370.67C1040.66 372.36 1061.3 374.96 1078.19 379.54C1104.11 386.54 1133.05 387.54 1160.93 390.85L1163.86 391.18H1753.17C1761.39 389.04 1769.32 386.56 1777.07 383.87C1788.46 379.87 1799.34 375.64 1810.36 371.47C1823.64 366.47 1839.21 363.95 1856.54 363.97C1877.01 363.97 1896.09 361.27 1915.29 358.8C1935.09 356.26 1954.71 353.46 1974.36 350.71C1977.59 350.249 1980.84 350.058 1984.1 350.14V179.73C1968.71 180.07 1953.32 180.49 1937.92 180.73C1927.62 180.798 1917.4 182.534 1907.66 185.87Z" fill="#1C1CFF"/>
<path d="M1976.31 238C1956.66 240.75 1937.04 243.55 1917.24 246.09C1898.03 248.56 1878.96 251.29 1858.49 251.27C1841.15 251.27 1825.59 253.73 1812.31 258.76C1801.31 262.94 1790.41 267.19 1779.01 271.16C1751.88 280.6 1722.58 287.46 1686.15 286.16C1675.81 285.79 1665.27 285.76 1654.82 286.41C1639.75 287.35 1627.3 291.19 1613.4 293.41C1591.73 296.9 1570.54 301.5 1546.93 301.12C1513.79 300.58 1481.93 303.18 1450 306.6C1424.35 309.34 1398.34 309.19 1372.28 307.26C1348.04 305.46 1325.11 301.62 1301.42 299C1260.85 294.5 1220.42 289.92 1183.23 281C1177.08 279.52 1169.77 278.93 1162.87 278.12C1135 274.84 1106.06 273.83 1080.14 266.81C1063.25 262.23 1042.61 259.63 1022.85 257.95C993.3 255.43 963.22 256.89 933.44 258.78C902.15 260.78 873.77 267.1 843.16 270.07C835.08 270.85 827.57 272.37 819.96 273.78C805.28 276.49 791.48 280.07 775.72 281.78C755.56 283.9 735.17 282.98 714.86 283.14C697.47 283.28 680.28 283.84 663.73 286.39C630.42 291.51 596.73 291.72 562.45 288.39C546.4 286.84 530.15 285.39 513.82 284.74C493.33 283.91 474.24 287.13 455.54 290.37C436.244 293.805 416.706 295.711 397.11 296.07C368.81 296.48 340.49 296.24 312.23 297.57C290.13 298.585 268.167 301.598 246.61 306.57C238.7 308.38 232.19 311.38 222.22 311.48C198.72 311.755 175.222 310.81 151.82 308.65C119.97 305.65 88.29 303.11 55.53 304.14C45.92 304.44 37.05 303.21 29.67 300.27C22.67 297.48 14.42 296.05 4.87999 296.16H-0.0100098V315C17.5977 315.92 35.2525 315.251 52.74 313C63.3 311.6 74.63 309.89 85.88 310.75C114.24 312.91 142.63 314.68 171.3 316.01C198.63 317.29 226 317.83 253.3 318.49C293.19 319.44 333.13 317.93 373.06 317.87C373.89 317.87 374.72 317.87 375.54 317.87C407.22 316.69 438.85 315.24 470.54 314.4C493.04 313.8 515.63 314.4 538.2 313.68C552.39 313.24 566.59 313.75 580.81 314.11L554.26 357.76H1280.8L1248.51 339.76C1255.2 339.698 1261.87 339.253 1268.51 338.43C1285.57 336.32 1303.23 335.14 1321.42 336.61C1330.2 337.138 1339 337.091 1347.77 336.47C1369.96 335.26 1392.26 336.1 1414.48 335.72C1428.08 335.49 1441.75 335.27 1455.3 334.77C1476.58 333.99 1497.78 332.77 1519 331.67C1533.44 330.94 1548 330.54 1562.41 329.95C1577.59 329.33 1592.69 329.4 1607.76 329.7C1619.85 329.94 1631.85 329.75 1643.64 329C1658.56 328 1673.32 326.66 1688.48 326.6C1690.95 326.6 1693.59 326.74 1695.35 325.74C1698.84 323.74 1703.82 323.85 1708.79 323.69C1731.02 322.95 1752.79 321.56 1773.74 317.75C1791.52 314.5 1810.5 313 1829.74 312.09C1849.32 311.17 1868.55 309.3 1888.32 308.63C1908.09 307.96 1926.89 303.47 1947.46 304.9C1960.29 305.728 1973.15 305.712 1985.98 304.85V237.4C1982.75 237.337 1979.51 237.537 1976.31 238Z" fill="#E8E8FF"/>
<path d="M1945.58 291.89C1925.01 290.46 1906.22 294.96 1886.45 295.62C1866.68 296.28 1847.45 298.16 1827.87 299.08C1808.67 299.99 1789.7 301.49 1771.87 304.74C1750.96 308.55 1729.15 309.94 1706.87 310.68C1701.87 310.84 1696.93 310.76 1693.44 312.73C1691.67 313.73 1689.03 313.58 1686.57 313.59C1671.41 313.65 1656.64 315.04 1641.73 315.99C1629.93 316.74 1617.93 316.93 1605.84 316.69C1590.77 316.39 1575.67 316.32 1560.49 316.94C1546.04 317.53 1531.49 317.94 1517.08 318.67C1495.86 319.75 1474.67 320.98 1453.39 321.76C1439.83 322.26 1426.16 322.48 1412.57 322.71C1390.34 323.09 1368.04 322.25 1345.85 323.46C1337.08 324.081 1328.28 324.128 1319.5 323.6C1301.31 322.13 1283.65 323.31 1266.6 325.42C1252.4 327.139 1238.05 327.229 1223.83 325.69C1220.03 325.301 1216.21 325.141 1212.39 325.21C1186.76 325.69 1161.22 324.62 1135.63 324.36C1109.08 324.08 1082.73 322.2 1056.3 321.16C1034.59 320.32 1012.59 320.06 990.51 320.38C973.04 320.63 954.91 322.12 937.42 319.89C928.53 318.75 919.98 319.94 911.27 320.11C896.45 320.39 881.56 319.6 866.76 320.78C862.405 321.045 858.035 320.888 853.71 320.31C832.71 317.84 810.94 317.56 789.46 316.45C761.46 315.01 733.46 313.45 705.92 310.62C673.7 307.27 641.22 304.4 608.85 301.32C608.024 301.275 607.196 301.275 606.37 301.32C582.95 301.81 559.58 299.98 536.25 300.69C513.67 301.37 491.08 300.81 468.59 301.41C436.87 302.25 405.23 303.7 373.59 304.88C372.77 304.88 371.94 304.88 371.11 304.88C331.18 304.94 291.24 306.46 251.35 305.5C224 304.84 196.63 304.3 169.3 303.03C140.63 301.69 112.24 299.92 83.88 297.76C72.63 296.9 61.31 298.61 50.74 300.01C33.9193 302.177 16.941 302.866 0 302.07L0 392.18H1984.17C1984.07 358.74 1984.05 325.297 1984.1 291.85C1971.27 292.703 1958.41 292.717 1945.58 291.89Z" fill="white"/>
</g>
<defs>
<clipPath id="clip0_0_1">
<rect width="1984.25" height="392.41" fill="white"/>
</clipPath>
</defs>
</svg>
