<svg id="Layer_1" data-name="Layer 1" xmlns="http://www.w3.org/2000/svg" viewBox="0 0 1984.25 392.41"><defs><style>.cls-1{fill:#00818f;}.cls-2{fill:#85bebf;}.cls-3{fill:#fff;}</style></defs><path class="cls-1" d="M1907.66,185.87c-7.11,2.48-13.84,5.2-21.26,7.48a127.15,127.15,0,0,1-51.94,5.12,392.64,392.64,0,0,0-55.77-2c-45,1.6-89.94,3.77-135.12,4-23.37.13-44,2.67-60.55,10.28a79.61,79.61,0,0,1-21.53,5.91,592.15,592.15,0,0,0-64.85,13.47c-18.93,4.92-37.2,10.35-57.55,14.18-31.55,5.95-64.78,9.38-97.94,13-59.33,6.47-119.62,11.1-178.73,18-21.35,2.48-41.94,5.39-59.78,11.68a165.32,165.32,0,0,1-41.6,8.42c-7.47,2.78-17.1,3.51-25.8,5.08-16.39,3-31.62,7.15-49.12,8.92-8.62,2.18-18.15,3.35-27.54,4.63l-9.42,1.31c-7.45-2.42-13.23-5.83-16.13-9.86-.81-1.11-2.58-2.26.55-3.25C889.31,293.68,845.12,285,799,278.35a134.84,134.84,0,0,0-26.86-1c-13.76.74-27.34,1.32-40.44-1.53a66.73,66.73,0,0,0-11.84-1.53c-19.91-.65-37.82-4.12-56-7.29a64.94,64.94,0,0,0-14.4-1c-9.75.45-19.36,0-27.49-2.74-6.7-2.27-14.13-3-22.45-2.88-12.4.15-24.81,0-37.22,0a50.71,50.71,0,0,0-11.32.85c-20.62,4.91-43.92,6.15-65.75,9.38a28.32,28.32,0,0,1-9.5-.11c-16.39-2.82-32.49-5.93-48-9.55A35.29,35.29,0,0,0,412,260.4a29.35,29.35,0,0,1-13.95-.61c-8-2.06-16.08-4.26-25.78-4.57a42,42,0,0,1-10-.79c-3.75-1.21-8-2.23-11.15-3.69-9.5-4.34-20.71-6.2-34.54-6.47-12.94-.26-26.14-.37-38.2-3.61-32.8-8.83-64.9-18.18-100-25.3a91.42,91.42,0,0,0-27-1.74c-9,.8-17.32.61-25.34-1.63a53,53,0,0,0-11.46-2c-10.78-.51-19.75-2.75-28.95-5-6.87-1.65-13.37-4-22.15-3.3a34.12,34.12,0,0,1-17.06-2.72c-3.83-1.78-8.34-2.32-13.84-2.64A282.5,282.5,0,0,0,0,196.53V391.18H794.74c7.79-1.52,15.41-3.22,23.27-4.67,7.61-1.41,15.13-2.93,23.2-3.71,30.61-3,59-9.3,90.28-11.29,29.78-1.89,59.86-3.35,89.42-.84,19.75,1.69,40.39,4.29,57.28,8.87,25.92,7,54.86,8,82.74,11.31l2.93.33h589.31c8.22-2.14,16.15-4.62,23.9-7.31,11.39-4,22.27-8.23,33.29-12.4,13.28-5,28.85-7.52,46.18-7.5,20.47,0,39.55-2.7,58.75-5.17,19.8-2.54,39.42-5.34,59.07-8.09a58.46,58.46,0,0,1,9.74-.57V179.73c-15.39.34-30.78.76-46.18,1A95.34,95.34,0,0,0,1907.66,185.87Z"/><path class="cls-2" d="M1976.31,238c-19.65,2.75-39.27,5.55-59.07,8.09-19.21,2.47-38.28,5.2-58.75,5.18-17.34,0-32.9,2.46-46.18,7.49-11,4.18-21.9,8.43-33.3,12.4-27.13,9.44-56.43,16.3-92.86,15-10.34-.37-20.88-.4-31.33.25-15.07.94-27.52,4.78-41.42,7-21.67,3.49-42.86,8.09-66.47,7.71-33.14-.54-65,2.06-96.93,5.48-25.65,2.74-51.66,2.59-77.72.66-24.24-1.8-47.17-5.64-70.86-8.26-40.57-4.5-81-9.08-118.19-18-6.15-1.48-13.46-2.07-20.36-2.88-27.87-3.28-56.81-4.29-82.73-11.31-16.89-4.58-37.53-7.18-57.29-8.86-29.55-2.52-59.63-1.06-89.41.83-31.29,2-59.67,8.32-90.28,11.29-8.08.78-15.59,2.3-23.2,3.71-14.68,2.71-28.48,6.29-44.24,8-20.16,2.12-40.55,1.2-60.86,1.36-17.39.14-34.58.7-51.13,3.25-33.31,5.12-67,5.33-101.28,2-16.05-1.55-32.3-3-48.63-3.65-20.49-.83-39.58,2.39-58.28,5.63a372.29,372.29,0,0,1-58.43,5.7c-28.3.41-56.62.17-84.88,1.5a366.88,366.88,0,0,0-65.62,9c-7.91,1.81-14.42,4.81-24.39,4.91a679.43,679.43,0,0,1-70.4-2.83c-31.85-3-63.53-5.54-96.29-4.51-9.61.3-18.48-.93-25.86-3.87-7-2.79-15.25-4.22-24.79-4.11l-4.89,0V315a293.34,293.34,0,0,0,52.75-2c10.56-1.4,21.89-3.11,33.14-2.25,28.36,2.16,56.75,3.93,85.42,5.26,27.33,1.28,54.7,1.82,82,2.48,39.89.95,79.83-.56,119.76-.62.83,0,1.66,0,2.48,0,31.68-1.18,63.31-2.63,95-3.47,22.5-.6,45.09,0,67.66-.72,14.19-.44,28.39.07,42.61.43l-26.55,43.65h726.54l-32.29-18a175.73,175.73,0,0,0,20-1.33c17.06-2.11,34.72-3.29,52.91-1.82a201.66,201.66,0,0,0,26.35-.14c22.19-1.21,44.49-.37,66.71-.75,13.6-.23,27.27-.45,40.82-.95,21.28-.78,42.48-2,63.7-3.1,14.44-.73,29-1.13,43.41-1.72,15.18-.62,30.28-.55,45.35-.25,12.09.24,24.09.05,35.88-.7,14.92-1,29.68-2.34,44.84-2.4,2.47,0,5.11.14,6.87-.86,3.49-2,8.47-1.89,13.44-2.05,22.23-.74,44-2.13,64.95-5.94,17.78-3.25,36.76-4.75,56-5.66,19.58-.92,38.81-2.79,58.58-3.46s38.57-5.16,59.14-3.73a293,293,0,0,0,38.52-.05V237.4A59.48,59.48,0,0,0,1976.31,238Z"/><path class="cls-3" d="M1945.58,291.89c-20.57-1.43-39.36,3.07-59.13,3.73s-39,2.54-58.58,3.46c-19.2.91-38.17,2.41-56,5.66-20.91,3.81-42.72,5.2-65,5.94-5,.16-9.94.08-13.43,2.05-1.77,1-4.41.85-6.87.86-15.16.06-29.93,1.45-44.84,2.4-11.8.75-23.8.94-35.89.7-15.07-.3-30.17-.37-45.35.25-14.45.59-29,1-43.41,1.73-21.22,1.08-42.41,2.31-63.69,3.09-13.56.5-27.23.72-40.82.95-22.23.38-44.53-.46-66.72.75a201.66,201.66,0,0,1-26.35.14c-18.19-1.47-35.85-.29-52.9,1.82a187.79,187.79,0,0,1-42.77.27,95.35,95.35,0,0,0-11.44-.48c-25.63.48-51.17-.59-76.76-.85-26.55-.28-52.9-2.16-79.33-3.2-21.71-.84-43.71-1.1-65.79-.78-17.47.25-35.6,1.74-53.09-.49-8.89-1.14-17.44.05-26.15.22-14.82.28-29.71-.51-44.51.67a67.52,67.52,0,0,1-13.05-.47c-21-2.47-42.77-2.75-64.25-3.86-28-1.44-56-3-83.54-5.83-32.22-3.35-64.7-6.22-97.07-9.3a22.74,22.74,0,0,0-2.48,0c-23.42.49-46.79-1.34-70.12-.63-22.58.68-45.17.12-67.66.72-31.72.84-63.36,2.29-95,3.47-.82,0-1.65,0-2.48,0-39.93.06-79.87,1.58-119.76.62-27.35-.66-54.72-1.2-82.05-2.47-28.67-1.34-57.06-3.11-85.42-5.27-11.25-.86-22.57.85-33.14,2.25A290.38,290.38,0,0,1,0,302.07v90.11H1984.17q-.15-50.16-.07-100.33A294.7,294.7,0,0,1,1945.58,291.89Z"/></svg>