<svg width="1024" height="1024" viewBox="0 0 1024 1024" fill="none" xmlns="http://www.w3.org/2000/svg">
<path fill-rule="evenodd" clip-rule="evenodd" d="M511.988 1024L818.85 578.627L818.768 578.679L818.768 578.679L511.988 773.953V1024ZM759.095 636.614L519.876 788.884V983.812L759.095 636.614Z" fill="white"/>
<path fill-rule="evenodd" clip-rule="evenodd" d="M205.194 578.724L205.127 578.627L511.973 773.944L511.989 773.953V1024L511.966 1023.97L205.194 578.724ZM264.767 636.614L504.101 983.98V788.957C504.079 788.943 504.057 788.93 504.035 788.916L503.999 788.893L264.767 636.614Z" fill="white"/>
<path fill-rule="evenodd" clip-rule="evenodd" d="M205.142 526.972L511.988 -1.90735e-05L511.988 377.659L205.127 526.998L205.142 526.972H205.142ZM504.101 372.051V46.0109L239.182 500.978L504.101 372.051Z" fill="white"/>
<path fill-rule="evenodd" clip-rule="evenodd" d="M205.253 527.122L511.988 718.112V377.668L205.142 526.972L205.069 527.008L205.253 527.122ZM231.182 523.748L504.101 693.682V390.952L231.182 523.748Z" fill="white"/>
<path fill-rule="evenodd" clip-rule="evenodd" d="M818.835 526.972L511.988 377.668V718.113L818.723 527.122L818.907 527.008L818.835 526.972ZM519.876 693.682L792.794 523.748L519.876 390.952V693.682Z" fill="white"/>
<path fill-rule="evenodd" clip-rule="evenodd" d="M511.988 -1.90735e-05V377.659L818.849 526.998L818.835 526.972L511.988 -1.90735e-05ZM519.876 372.051L784.795 500.978L519.876 46.011V372.051Z" fill="white"/>
<path fill-rule="evenodd" clip-rule="evenodd" d="M100.797 461.898L116.961 414.307L95.1054 442.531L-9.91821e-05 565.356H20.6332L22.4029 563.085C40.5531 539.79 76.7866 492.964 100.121 462.774L100.797 461.898Z" fill="white"/>
<path fill-rule="evenodd" clip-rule="evenodd" d="M100.769 667.588L116.912 714.553L8.33391 576.041L-9.53674e-05 565.356H20.6054L22.3751 567.6C40.5253 590.619 76.7589 636.89 100.093 666.723L100.769 667.588Z" fill="white"/>
<path fill-rule="evenodd" clip-rule="evenodd" d="M923.202 461.898L907.039 414.307L928.894 442.531L1024 565.356L1003.37 565.356L1001.6 563.084C983.446 539.79 947.213 492.964 923.879 462.774L923.202 461.898Z" fill="white"/>
<path fill-rule="evenodd" clip-rule="evenodd" d="M923.23 667.587L907.088 714.552L1015.67 576.04L1024 565.355L1003.39 565.355L1001.62 567.6C983.475 590.618 947.241 636.89 923.907 666.722L923.23 667.587Z" fill="white"/>
</svg>
